<svg width="32" height="32" viewBox="0 0 32 32" fill="none" xmlns="http://www.w3.org/2000/svg">
  <defs>
    <!-- Enhanced Glass Base -->
    <radialGradient id="faviconGlass" cx="50%" cy="35%" r="80%">
      <stop offset="0%" style="stop-color:#FFFFFF;stop-opacity:0.3" />
      <stop offset="50%" style="stop-color:#E2E8F0;stop-opacity:0.15" />
      <stop offset="100%" style="stop-color:#94A3B8;stop-opacity:0.08" />
    </radialGradient>
    
    <!-- Enhanced Depth -->
    <radialGradient id="faviconDepth" cx="50%" cy="70%" r="60%">
      <stop offset="0%" style="stop-color:#000000;stop-opacity:0" />
      <stop offset="100%" style="stop-color:#000000;stop-opacity:0.15" />
    </radialGradient>
    
    <!-- Brighter Top Highlight -->
    <linearGradient id="faviconHighlight" x1="20%" y1="10%" x2="80%" y2="50%">
      <stop offset="0%" style="stop-color:#FFFFFF;stop-opacity:0.5" />
      <stop offset="100%" style="stop-color:#FFFFFF;stop-opacity:0" />
    </linearGradient>
    
    <!-- Enhanced Border -->
    <linearGradient id="faviconBorder" x1="0%" y1="0%" x2="100%" y2="100%">
      <stop offset="0%" style="stop-color:#FFFFFF;stop-opacity:0.4" />
      <stop offset="50%" style="stop-color:#FFFFFF;stop-opacity:0.2" />
      <stop offset="100%" style="stop-color:#000000;stop-opacity:0.1" />
    </linearGradient>
  </defs>
  
  <!-- Rounded Rectangle Base -->
  <rect x="1" y="1" width="30" height="30" rx="7" ry="7"
        fill="url(#faviconGlass)"/>
  
  <!-- Depth Layer -->
  <rect x="1" y="1" width="30" height="30" rx="7" ry="7"
        fill="url(#faviconDepth)"/>
  
  <!-- Top Highlight -->
  <ellipse cx="16" cy="12" rx="11" ry="7" 
           fill="url(#faviconHighlight)"
           clip-path="url(#faviconClip)"/>
  
  <!-- Enhanced Border -->
  <rect x="1" y="1" width="30" height="30" rx="7" ry="7"
        fill="none" 
        stroke="url(#faviconBorder)" 
        stroke-width="0.5"/>
  
  <!-- Main "L" Shape -->
  <g transform="translate(16, 16)">
    <path d="M-5 -7 L-5 3 L3 3 L3 1 L-3 1 L-3 -7 Z" 
          fill="#FFFFFF" 
          opacity="0.9"/>
    
    <!-- Liquid Drop -->
    <circle cx="1.5" cy="-4" r="1.5" 
            fill="#FFFFFF" 
            opacity="0.8"/>
  </g>
  
  <!-- Clip Path -->
  <defs>
    <clipPath id="faviconClip">
      <rect x="1" y="1" width="30" height="30" rx="7" ry="7"/>
    </clipPath>
  </defs>
</svg>